<svg width="61" height="61" viewBox="0 0 61 61" fill="none" xmlns="http://www.w3.org/2000/svg">
<path d="M30.805 42.7763C30.805 43.1118 31.0642 43.3862 31.3769 43.3862H45.4831C45.7958 43.3862 46.055 43.1118 46.055 42.7763V39.1162C46.055 38.7807 45.7958 38.5063 45.4831 38.5063H31.3769C31.0642 38.5063 30.805 38.7807 30.805 39.1162V42.7763ZM15.9439 43.2414L30.5839 30.9651C30.8736 30.7211 30.8736 30.2713 30.5839 30.0273L15.9439 17.7586C15.8555 17.6835 15.7474 17.6353 15.6324 17.6197C15.5175 17.6042 15.4005 17.6219 15.2953 17.6709C15.1901 17.7199 15.1012 17.798 15.0391 17.896C14.977 17.994 14.9444 18.1077 14.945 18.2238V23.0046C14.945 23.1876 15.0213 23.3554 15.1661 23.4697L23.5384 30.5L15.1661 37.5303C15.098 37.5873 15.0429 37.6584 15.0048 37.7387C14.9666 37.8189 14.9462 37.9065 14.945 37.9954V42.7763C14.945 43.2948 15.5474 43.5769 15.9439 43.2414ZM58.56 0H2.44C1.09037 0 0 1.09037 0 2.44V58.56C0 59.9096 1.09037 61 2.44 61H58.56C59.9096 61 61 59.9096 61 58.56V2.44C61 1.09037 59.9096 0 58.56 0ZM55.51 55.51H5.49V5.49H55.51V55.51Z" fill="#0C95E2"/>
</svg>
